<?xml version="1.0" encoding="UTF-8"?>
<svg version="1.1" viewBox="0 0 1600 1600" width="1280" height="1280" xmlns="http://www.w3.org/2000/svg">
<path transform="translate(1446,169)" d="m0 0c1.42 2.83 1.12 5.19 1.12 8.36v2.01c0 2.25-0.01 4.51-0.01 6.76v4.88c-0.01 4.51-0.01 9.02-0.02 13.5-0.01 4.89-0.01 9.79-0.02 14.7 0 8.58-0.02 17.2-0.03 25.8-0.02 12.8-0.03 25.5-0.04 38.3-0.03 21.5-0.05 43-0.08 64.4-0.03 21.3-0.05 42.6-0.08 63.8v2c-0.01 6.03-0.01 12.1-0.02 18.1-0.02 15-0.03 30-0.05 45v2.07c-0.04 33.2-0.08 66.4-0.12 99.7-0.02 11.5-0.03 23.1-0.04 34.6-0.01 0.72-0.01 1.43-0.01 2.17-0.04 33.2-0.08 66.5-0.12 99.7v6.47c-0.02 14.3-0.04 28.6-0.05 42.9-0.03 28.4-0.07 56.9-0.1 85.3v4.07l-0.33 270c-3.89 1.3-7.74 1.48-11.8 1.8-1.84 0.15-3.69 0.3-5.53 0.45-0.97 0.09-1.95 0.17-2.95 0.25-75.7 6.3-150 21.4-222 47.5-1.19 0.44-2.39 0.87-3.62 1.32-31 11.4-61.6 24.3-91 39.4-2.96 1.51-5.92 3-8.88 4.49-16.9 8.58-33.3 17.8-49.5 27.7-1.83 1.1-3.65 2.2-5.48 3.3-13.8 8.4-27.2 17.5-40.5 26.7-0.7 0.49-1.4 0.97-2.13 1.47-10.4 7.23-20.4 15-30.5 22.7-2.04 1.56-4.08 3.11-6.13 4.66-6.86 5.19-13.4 10.7-19.9 16.3-2.92 2.52-5.89 4.96-8.9 7.37-7.84 6.38-15.1 13.4-22.5 20.3-1.01 0.95-1.01 0.95-2.04 1.92-1.31 1.24-2.61 2.48-3.92 3.73-0.59 0.56-1.19 1.12-1.81 1.7-0.52 0.5-1.04 1-1.59 1.52-1.77 1.44-3.55 2.37-5.62 3.32v2c-1.43 1.2-2.87 2.4-4.34 3.56-1.69 1.47-3.02 3-4.41 4.75-0.74 0.89-1.49 1.78-2.25 2.69h-2c-0.37 0.86-0.37 0.86-0.74 1.73-1.47 2.66-3.2 4.41-5.37 6.54-0.81 0.8-1.63 1.61-2.48 2.44-0.86 0.84-1.71 1.68-2.6 2.54-5.85 5.73-11.5 11.5-16.8 17.8-1.01 1.18-2.02 2.35-3.03 3.53-0.97 1.13-1.94 2.27-2.91 3.41-4.62 5.41-9.3 10.8-14.1 16.1-2.13-3.48-2.25-6.24-2.26-10.3 0-1.96 0-1.96-0.01-3.95 0-1.45 0-2.91 0.01-4.36-0.01-1.55-0.01-3.09-0.02-4.64-0.01-4.27-0.01-8.54 0-12.8 0-4.64-0.01-9.28-0.02-13.9-0.01-9.21-0.02-18.4-0.02-27.6 0-11-0.01-22.1-0.03-33.1-0.03-26.7-0.04-53.3-0.05-80-0.01-12.6-0.01-25.2-0.02-37.8-0.03-42.4-0.05-84.9-0.05-127-0.01-2.03-0.01-4.05-0.01-6.08v-12.2-14.3-4.09c-0.01-43.8-0.04-87.6-0.08-131-0.05-47-0.08-93.9-0.09-141v-15.2-3.79c0-20.2-0.02-40.3-0.05-60.4-0.03-20.2-0.04-40.5-0.02-60.7 0.01-12 0-24.1-0.03-36.1-0.02-8.03-0.02-16.1 0-24.1 0.01-4.58 0.01-9.16-0.01-13.7-0.02-4.17-0.02-8.33 0.01-12.5 0-1.5 0-3-0.02-4.49-0.09-9.2 0.75-15 6.77-22 0.94-1.34 1.87-2.68 2.79-4.04 9.33-13.3 18.9-26.4 29.2-39 1.02-1.26 2.04-2.52 3.06-3.78 2.26-2.78 4.52-5.56 6.78-8.33 1.86-2.28 3.7-4.57 5.54-6.87 5.25-6.55 10.9-12.7 16.6-18.8 2.36-2.51 4.65-5.06 6.9-7.67 2.69-3.12 5.55-6.01 8.5-8.9 1.52-1.55 2.89-3.15 4.24-4.85 2.29-2.7 4.59-4.65 7.38-6.81 1.68-1.65 3.35-3.32 5-5 0.8-0.81 1.59-1.61 2.41-2.44 0.83-0.84 1.65-1.68 2.5-2.54 1.42-1.44 2.84-2.87 4.26-4.3 0.96-0.97 1.92-1.94 2.88-2.92 5.9-6 12-11.6 18.6-16.9 2.74-2.2 5.32-4.51 7.89-6.92 5.33-4.89 10.9-9.48 16.5-14 1.14-0.92 2.29-1.85 3.43-2.77 15.1-12.2 30.4-23.7 46.4-34.7 1.87-1.3 3.74-2.6 5.59-3.92 24.4-17.2 50.3-32.1 76.7-46 2.58-1.37 5.14-2.75 7.71-4.15 51.5-27.9 108-48.3 164-62.9 1.92-0.49 3.84-0.99 5.75-1.49 45.1-11.7 95.4-22.6 142-22z"/>
<path transform="translate(157,169)" d="m0 0c4.13 0.31 8.27 0.62 12.4 0.93 1.74 0.13 1.74 0.13 3.51 0.26 9.56 0.73 19 1.76 28.5 3.06 1.18 0.16 1.18 0.16 2.39 0.32 83.8 11.3 165 34.9 249 75.4 1.69 0.82 1.69 0.82 3.41 1.66 9.52 4.64 19 9.34 28 14.8 2.58 1.54 5.18 2.99 7.82 4.42 1.92 1.04 3.83 2.08 5.75 3.12 1.12 0.61 2.25 1.22 3.4 1.85 17.5 9.6 34.4 20.3 50.7 31.8 2.03 1.43 4.07 2.85 6.11 4.27 14.6 10.2 28.9 20.9 42.8 32.1 0.66 0.52 1.31 1.04 1.99 1.58 7.69 6.15 15.2 12.4 22.4 19.1 3.56 3.22 7.27 6.21 11 9.23 2.45 1.99 4.87 4 7.28 6.05 0.64 0.54 1.28 1.09 1.95 1.65 1.36 1.41 1.36 1.41 1.36 3.41 0.59 0.26 1.17 0.52 1.78 0.79 2.35 1.28 3.89 2.63 5.78 4.52 1.01 1.02 1.01 1.02 2.05 2.05 1.08 1.09 1.08 1.09 2.19 2.21l2.29 2.29c1.59 1.6 3.19 3.2 4.78 4.81 2.42 2.43 4.84 4.86 7.27 7.28 1.55 1.56 3.11 3.12 4.66 4.68 0.72 0.72 1.43 1.44 2.17 2.18 12.5 12.6 12.5 12.6 14 17.2h2c1.41 1.4 1.41 1.4 3.06 3.38 2.69 3.16 5.43 6.25 8.25 9.31 3.85 4.26 7.37 8.71 10.8 13.3 2.96 3.89 6.05 7.63 9.25 11.3 6.25 7.29 12 14.9 17.6 22.7 0.56 0.77 1.12 1.53 1.7 2.32 1.73 2.37 3.45 4.74 5.18 7.12 0.52 0.72 1.04 1.44 1.58 2.18 0.99 1.38 1.97 2.76 2.94 4.15 1.54 2.21 1.54 2.21 3.18 4.08 5.53 6.94 5.25 14 5.16 22.5 0 1.56 0.01 3.12 0.02 4.69 0.02 4.29 0 8.59-0.03 12.9-0.02 4.67 0 9.34 0.01 14 0.01 8.19 0 16.4-0.02 24.6-0.04 12.2-0.04 24.4-0.04 36.5 0.01 20.5-0.01 41-0.05 61.5-0.03 20.3-0.05 40.6-0.06 60.9v3.82c0 6.4-0.01 12.8-0.01 19.2-0.01 45.4-0.05 90.7-0.11 136-0.01 11-0.02 22-0.04 33v2.07c-0.04 31.7-0.06 63.4-0.08 95.1v6.18l-0.03 40.9c-0.01 27.8-0.03 55.6-0.05 83.4v3.87c-0.05 85.3-0.15 171-0.25 256-3.75-1.25-4.65-2.78-7.06-5.88-4.01-5.03-8.22-9.8-12.6-14.5-2.68-2.93-5.29-5.91-7.89-8.92-1.46-1.7-1.46-1.7-3.16-3.25-1.31-1.41-1.31-1.41-1.31-3.41h-2c-1.2-1.22-1.2-1.22-2.69-3.06-5.39-6.33-11.3-12.1-17.2-18-2.02-2.02-4.04-4.04-6.06-6.07-8.44-8.45-8.44-8.45-17.3-16.4-3.11-2.66-6.05-5.52-9.02-8.34-5.17-4.85-10.4-9.5-16-13.9-2.43-1.96-4.81-3.98-7.19-6.02-21-18-43.5-34.7-66.7-49.9-2.2-1.46-4.39-2.94-6.57-4.42-11.1-7.52-22.4-14.6-34-21.5-2.73-1.62-5.45-3.27-8.17-4.92-11.4-6.92-23-13.5-35.1-19.4-3.25-1.6-6.48-3.22-9.65-4.97-23.5-12.9-48.5-23.3-73.4-33-0.96-0.38-1.92-0.76-2.91-1.15-18.1-7.09-36.6-13.2-55.1-19.2l-5.16-1.68c-27.3-8.91-55.6-15.6-83.8-21-1.84-0.36-1.84-0.36-3.72-0.72-35.6-6.84-71.4-11.2-107-13.6-1.02-0.08-2.03-0.15-3.08-0.22-1.34-0.09-1.34-0.09-2.71-0.18-2.02-0.25-2.02-0.25-3.02-1.25-0.1-2.48-0.13-4.93-0.12-7.41v-2.42c0-2.76 0-5.52 0.01-8.27v-6.11c0-5.8 0.01-11.6 0.02-17.4 0-5.16 0.01-10.3 0.01-15.5 0.01-19.1 0.04-38.1 0.07-57.2 0.01-4.87 0.02-9.73 0.02-14.6 0.11-71.1 0.25-142 0.4-213 0.02-8.86 0.04-17.7 0.06-26.6 0.16-80.4 0.33-161 0.99-399 0.03-9.6 0.06-19.2 0.09-28.8 0.04-14.3 0.09-28.6 0.14-42.8 0.02-4.76 0.04-9.51 0.05-14.3 0.1-33.8 0.59-67.6 1.26-101z"/>
<path transform="translate(1520,383)" d="m0 0c1.6 0.32 3.19 0.63 4.79 0.95 1.33 0.26 1.33 0.26 2.69 0.53 5.48 1.13 10.9 2.59 16.3 4.02 0.64 0.17 1.28 0.34 1.94 0.51 10.3 2.75 20.4 5.85 30.6 9.24 1.23 0.41 2.46 0.82 3.73 1.25 6.78 2.31 13.4 4.83 20 7.5v979c-18.7-4.41-18.7-4.41-25.5-6.08-46.6-11.3-93.6-20-141-24.7-2.09-0.2-4.17-0.42-6.26-0.64-88.8-9.2-180-5.88-453 56.9-0.77 0.28-1.54 0.57-2.34 0.86-3.69 1.35-7.38 2.72-11.1 4.11-1.31 0.49-2.62 0.98-3.93 1.46-1.14 0.44-2.29 0.87-3.46 1.31-2.69 0.8-2.69 0.8-4.69-0.2 3.13-3.15 6.25-6.3 9.39-9.44l3.18-3.21c5.96-6 12-11.9 18.4-17.4 1.12-0.96 2.23-1.92 3.35-2.89 1.7-1.45 3.39-2.9 5.09-4.34 3-2.57 6-5.15 8.98-7.75 8.26-7.21 16.8-13.9 25.6-20.5 1.79-1.36 3.58-2.73 5.35-4.12 8.03-6.27 16.3-12.2 24.6-18 1.8-1.25 3.59-2.5 5.38-3.77 69.8-48.9 149-84.3 286-119 1.26-0.25 2.51-0.49 3.81-0.75 41.2-7.94 82.8-10.6 125-12.5l5.1-0.24c0.76-0.04 1.51-0.07 2.29-0.1 9.7-0.48 17.4-2.24 25.2-8.1 1.84-1.3 1.84-1.3 4.84-2.3 1.09-1.85 1.09-1.85 2-4 0.39-0.6 0.78-1.21 1.18-1.83 6.78-10.7 7.27-23.8 7.2-36.1 0.01-1.34 0.01-2.68 0.02-4.02 0.01-3.64 0.01-7.28 0-10.9 0-3.97 0.01-7.95 0.02-11.9 0.01-6.96 0.02-13.9 0.01-20.9 0-10.3 0.01-20.7 0.03-31 0.03-17.4 0.04-34.8 0.04-52.2 0.01-17.2 0.02-34.4 0.04-51.7v-3.25c0.01-5.44 0.01-10.9 0.02-16.3 0.04-38.6 0.07-77.1 0.09-116 0.02-37.4 0.05-74.9 0.09-112v-3.49c0.01-11.6 0.02-23.2 0.03-34.8 0.03-23.6 0.05-47.2 0.07-70.8v-3.29c0.07-72.5 0.12-145 0.16-217z"/>
<path transform="translate(80,381)" d="m0 0v2.04c0.03 73.3 0.06 147 0.12 220v3.32l0.06 71.4c0.01 11.7 0.02 23.3 0.03 35v3.52c0.03 37.6 0.05 75.3 0.06 113 0.01 38.7 0.04 77.3 0.08 116 0.01 5.46 0.01 10.9 0.02 16.4v3.26c0.02 17.3 0.02 34.6 0.02 51.9 0 17.4 0.01 34.8 0.04 52.2 0.02 10.3 0.02 20.7 0.01 31 0 6.91 0.01 13.8 0.03 20.7 0.01 3.93 0.01 7.86 0 11.8-0.01 3.58-0.01 7.17 0.02 10.8 0 1.88-0.01 3.76-0.02 5.64 0.1 12 2.16 25.2 10.5 34.3 12.7 11.5 27.6 11.9 44 12.2 58.8 1.31 117 10 174 24.8 0.65 0.17 1.3 0.34 1.97 0.51 49.6 12.8 98.5 31 144 54.5 2.2 1.12 4.41 2.2 6.62 3.29 43.9 21.5 85.4 49 124 79.3 1.78 1.4 3.56 2.79 5.35 4.17 6.52 5.03 12.7 10.2 18.8 15.8 2.51 2.28 5.09 4.4 7.74 6.5 10.7 8.62 20.6 18.3 30.1 28.2 1.81 1.75 3.71 3.23 5.76 4.7l-1 2c-0.62-0.25-1.24-0.5-1.88-0.76-86.7-34.5-180-56-325-68.2-1.05-0.06-2.1-0.12-3.19-0.18-95.2-5.11-191 4.98-322 36.2v-981c16.5-5.28 33-10.5 49.6-15.4 2.1-0.62 4.19-1.24 6.28-1.86 22.8-6.76 22.8-6.76 24.1-6.76z"/>
</svg>
